<svg data-v-423bf9ae="" xmlns="http://www.w3.org/2000/svg" viewBox="0 0 778 90" class="iconLeftSlogan"><!----><!----><!----><g data-v-423bf9ae="" id="21be86e0-37dc-47bb-b98b-36d775db3b6d" fill="white" transform="matrix(5.791505450303629,0,0,5.791505450303629,108.10435232103112,-15.637065707236033)"><path d="M12.19 4.23L10.99 4.35L10.99 4.35Q10.96 5.24 10.96 6.13L10.96 6.13L10.96 6.13Q10.96 7.01 10.96 7.92L10.96 7.92L10.96 8.51L10.96 8.51Q10.96 9.41 10.96 10.30L10.96 10.30L10.96 10.30Q10.96 11.19 10.99 12.08L10.99 12.08L12.19 12.21L12.19 12.85L8.09 12.85L8.09 12.21L9.25 12.08L9.25 12.08Q9.28 11.20 9.28 10.31L9.28 10.31L9.28 10.31Q9.28 9.42 9.28 8.51L9.28 8.51L9.28 5.80L6.10 12.85L5.60 12.85L2.41 5.77L2.41 12.03L3.64 12.21L3.64 12.85L0.36 12.85L0.36 12.21L1.67 12.03L1.67 4.37L0.45 4.23L0.45 3.58L3.11 3.58L6.33 10.61L9.53 3.58L12.19 3.58L12.19 4.23ZM16.86 11.49L16.86 9.23L16.86 9.23Q16.53 9.32 16.25 9.42L16.25 9.42L16.25 9.42Q15.96 9.52 15.76 9.59L15.76 9.59L15.76 9.59Q15.01 9.88 14.77 10.26L14.77 10.26L14.77 10.26Q14.53 10.63 14.53 11.00L14.53 11.00L14.53 11.00Q14.53 11.28 14.61 11.45L14.61 11.45L14.61 11.45Q14.69 11.62 14.81 11.75L14.81 11.75L14.81 11.75Q15.12 12.05 15.62 12.05L15.62 12.05L15.62 12.05Q15.90 12.05 16.16 11.94L16.16 11.94L16.16 11.94Q16.42 11.82 16.86 11.49L16.86 11.49ZM19.35 11.83L19.67 12.11L19.67 12.11Q19.40 12.63 19.09 12.81L19.09 12.81L19.09 12.81Q18.77 12.99 18.33 12.99L18.33 12.99L18.33 12.99Q17.74 12.99 17.39 12.74L17.39 12.74L17.39 12.74Q17.04 12.49 16.91 12.05L16.91 12.05L16.91 12.05Q16.66 12.31 16.43 12.50L16.43 12.50L16.43 12.50Q16.20 12.68 15.97 12.81L15.97 12.81L15.97 12.81Q15.74 12.94 15.47 13.00L15.47 13.00L15.47 13.00Q15.20 13.06 14.88 13.06L14.88 13.06L14.88 13.06Q14.08 13.06 13.54 12.62L13.54 12.62L13.54 12.62Q12.99 12.18 12.99 11.34L12.99 11.34L12.99 11.34Q12.99 11.03 13.09 10.74L13.09 10.74L13.09 10.74Q13.19 10.44 13.46 10.16L13.46 10.16L13.46 10.16Q13.73 9.87 14.22 9.60L14.22 9.60L14.22 9.60Q14.70 9.34 15.46 9.07L15.46 9.07L15.46 9.07Q15.74 8.97 16.11 8.87L16.11 8.87L16.11 8.87Q16.48 8.76 16.86 8.65L16.86 8.65L16.86 8.27L16.86 8.27Q16.86 7.32 16.57 6.96L16.57 6.96L16.57 6.96Q16.28 6.59 15.60 6.59L15.60 6.59L15.60 6.59Q15.47 6.59 15.32 6.61L15.32 6.61L15.32 6.61Q15.18 6.62 15.02 6.65L15.02 6.65L14.83 7.55L14.83 7.55Q14.66 8.43 13.96 8.43L13.96 8.43L13.96 8.43Q13.65 8.43 13.45 8.25L13.45 8.25L13.45 8.25Q13.26 8.06 13.22 7.77L13.22 7.77L13.22 7.77Q13.36 6.96 14.11 6.45L14.11 6.45L14.11 6.45Q14.87 5.94 16.09 5.94L16.09 5.94L16.09 5.94Q17.29 5.94 17.84 6.52L17.84 6.52L17.84 6.52Q18.40 7.11 18.40 8.57L18.40 8.57L18.40 11.51L18.40 11.51Q18.40 12.17 18.80 12.17L18.80 12.17L18.80 12.17Q18.96 12.17 19.07 12.09L19.07 12.09L19.07 12.09Q19.18 12.01 19.28 11.90L19.28 11.90L19.35 11.83ZM24.99 11.52L24.99 7.45L24.99 7.45Q24.25 6.87 23.63 6.87L23.63 6.87L23.63 6.87Q23.28 6.87 22.97 7.03L22.97 7.03L22.97 7.03Q22.65 7.18 22.41 7.51L22.41 7.51L22.41 7.51Q22.16 7.84 22.02 8.34L22.02 8.34L22.02 8.34Q21.88 8.83 21.88 9.51L21.88 9.51L21.88 9.51Q21.88 10.84 22.37 11.47L22.37 11.47L22.37 11.47Q22.85 12.11 23.59 12.11L23.59 12.11L23.59 12.11Q24.29 12.11 24.99 11.52L24.99 11.52ZM26.54 12.11L27.51 12.29L27.51 12.85L25.16 12.99L25.05 12.12L25.05 12.12Q24.64 12.57 24.16 12.82L24.16 12.82L24.16 12.82Q23.69 13.06 23.04 13.06L23.04 13.06L23.04 13.06Q22.43 13.06 21.91 12.82L21.91 12.82L21.91 12.82Q21.39 12.59 21.02 12.13L21.02 12.13L21.02 12.13Q20.65 11.68 20.44 11.03L20.44 11.03L20.44 11.03Q20.23 10.37 20.23 9.55L20.23 9.55L20.23 9.55Q20.23 8.72 20.46 8.06L20.46 8.06L20.46 8.06Q20.69 7.39 21.09 6.92L21.09 6.92L21.09 6.92Q21.49 6.44 22.04 6.19L22.04 6.19L22.04 6.19Q22.58 5.94 23.21 5.94L23.21 5.94L23.21 5.94Q24.30 5.94 25.06 6.78L25.06 6.78L25.06 4.00L23.90 3.86L23.90 3.33L26.40 2.70L26.60 2.81L26.54 4.80L26.54 12.11ZM30.04 8.86L32.14 8.86L32.14 8.86Q32.65 8.86 32.82 8.65L32.82 8.65L32.82 8.65Q33.00 8.44 33.00 8.06L33.00 8.06L33.00 8.06Q33.00 7.43 32.64 7.01L32.64 7.01L32.64 7.01Q32.28 6.59 31.75 6.59L31.75 6.59L31.75 6.59Q31.49 6.59 31.21 6.71L31.21 6.71L31.21 6.71Q30.93 6.83 30.68 7.10L30.68 7.10L30.68 7.10Q30.44 7.36 30.27 7.80L30.27 7.80L30.27 7.80Q30.10 8.23 30.04 8.86L30.04 8.86ZM34.40 9.51L30.02 9.51L30.02 9.51Q30.04 10.78 30.63 11.42L30.63 11.42L30.63 11.42Q31.22 12.07 32.16 12.07L32.16 12.07L32.16 12.07Q32.80 12.07 33.23 11.79L33.23 11.79L33.23 11.79Q33.66 11.52 34.01 11.05L34.01 11.05L34.41 11.30L34.41 11.30Q34.09 12.14 33.36 12.60L33.36 12.60L33.36 12.60Q32.63 13.06 31.61 13.06L31.61 13.06L31.61 13.06Q30.87 13.06 30.28 12.82L30.28 12.82L30.28 12.82Q29.68 12.59 29.25 12.13L29.25 12.13L29.25 12.13Q28.83 11.68 28.60 11.03L28.60 11.03L28.60 11.03Q28.36 10.37 28.36 9.55L28.36 9.55L28.36 9.55Q28.36 8.75 28.62 8.09L28.62 8.09L28.62 8.09Q28.88 7.42 29.34 6.94L29.34 6.94L29.34 6.94Q29.79 6.47 30.41 6.20L30.41 6.20L30.41 6.20Q31.02 5.94 31.72 5.94L31.72 5.94L31.72 5.94Q32.34 5.94 32.85 6.14L32.85 6.14L32.85 6.14Q33.36 6.34 33.73 6.71L33.73 6.71L33.73 6.71Q34.09 7.07 34.29 7.60L34.29 7.60L34.29 7.60Q34.50 8.12 34.50 8.76L34.50 8.76L34.50 8.76Q34.50 8.97 34.47 9.16L34.47 9.16L34.47 9.16Q34.44 9.35 34.40 9.51L34.40 9.51ZM41.71 12.14L42.34 12.14L42.34 12.14Q43.75 12.14 44.32 11.64L44.32 11.64L44.32 11.64Q44.88 11.14 44.88 10.25L44.88 10.25L44.88 10.25Q44.88 9.28 44.30 8.83L44.30 8.83L44.30 8.83Q43.71 8.37 42.35 8.37L42.35 8.37L41.68 8.37L41.68 8.37Q41.68 9.38 41.68 10.30L41.68 10.30L41.68 10.30Q41.68 11.23 41.71 12.14L41.71 12.14ZM42.53 4.30L41.71 4.30L41.71 4.30Q41.68 5.14 41.68 5.98L41.68 5.98L41.68 5.98Q41.68 6.82 41.68 7.67L41.68 7.67L42.31 7.67L42.31 7.67Q43.44 7.67 43.96 7.25L43.96 7.25L43.96 7.25Q44.48 6.83 44.48 5.95L44.48 5.95L44.48 5.95Q44.48 5.07 44.00 4.68L44.00 4.68L44.00 4.68Q43.53 4.30 42.53 4.30L42.53 4.30ZM38.75 3.58L42.98 3.58L42.98 3.58Q44.55 3.58 45.33 4.22L45.33 4.22L45.33 4.22Q46.10 4.86 46.10 5.88L46.10 5.88L46.10 5.88Q46.10 6.58 45.68 7.16L45.68 7.16L45.68 7.16Q45.25 7.74 44.23 7.98L44.23 7.98L44.23 7.98Q44.87 8.09 45.32 8.31L45.32 8.31L45.32 8.31Q45.77 8.53 46.05 8.82L46.05 8.82L46.05 8.82Q46.34 9.11 46.47 9.48L46.47 9.48L46.47 9.48Q46.59 9.86 46.59 10.26L46.59 10.26L46.59 10.26Q46.59 10.74 46.40 11.20L46.40 11.20L46.40 11.20Q46.21 11.66 45.75 12.03L45.75 12.03L45.75 12.03Q45.29 12.40 44.50 12.63L44.50 12.63L44.50 12.63Q43.71 12.85 42.52 12.85L42.52 12.85L38.75 12.85L38.75 12.21L39.96 12.08L39.96 12.08Q39.98 11.20 39.98 10.31L39.98 10.31L39.98 10.31Q39.98 9.42 39.98 8.51L39.98 8.51L39.98 7.92L39.98 7.92Q39.98 7.03 39.98 6.14L39.98 6.14L39.98 6.14Q39.98 5.25 39.96 4.35L39.96 4.35L38.75 4.23L38.75 3.58ZM49.98 6.08L50.12 7.56L50.12 7.56Q50.51 6.80 51.03 6.37L51.03 6.37L51.03 6.37Q51.55 5.94 52.08 5.94L52.08 5.94L52.08 5.94Q52.37 5.94 52.68 6.10L52.68 6.10L52.68 6.10Q52.99 6.27 53.07 6.71L53.07 6.71L53.07 6.71Q53.07 7.11 52.82 7.36L52.82 7.36L52.82 7.36Q52.57 7.60 52.16 7.60L52.16 7.60L52.16 7.60Q51.67 7.60 51.23 7.14L51.23 7.14L51.16 7.07L51.16 7.07Q50.83 7.35 50.58 7.71L50.58 7.71L50.58 7.71Q50.32 8.08 50.13 8.57L50.13 8.57L50.13 9.91L50.13 9.91Q50.13 10.36 50.13 10.96L50.13 10.96L50.13 10.96Q50.13 11.55 50.15 12.08L50.15 12.08L51.27 12.29L51.27 12.85L47.63 12.85L47.63 12.29L48.57 12.11L48.57 12.11Q48.58 11.59 48.58 10.98L48.58 10.98L48.58 10.98Q48.58 10.37 48.58 9.91L48.58 9.91L48.58 9.16L48.58 9.16Q48.58 8.58 48.57 8.23L48.57 8.23L48.57 8.23Q48.55 7.87 48.54 7.45L48.54 7.45L47.52 7.32L47.52 6.80L49.77 5.94L49.98 6.08ZM55.26 8.86L57.36 8.86L57.36 8.86Q57.86 8.86 58.04 8.65L58.04 8.65L58.04 8.65Q58.21 8.44 58.21 8.06L58.21 8.06L58.21 8.06Q58.21 7.43 57.86 7.01L57.86 7.01L57.86 7.01Q57.50 6.59 56.97 6.59L56.97 6.59L56.97 6.59Q56.70 6.59 56.42 6.71L56.42 6.71L56.42 6.71Q56.14 6.83 55.90 7.10L55.90 7.10L55.90 7.10Q55.65 7.36 55.48 7.80L55.48 7.80L55.48 7.80Q55.31 8.23 55.26 8.86L55.26 8.86ZM59.61 9.51L55.23 9.51L55.23 9.51Q55.26 10.78 55.85 11.42L55.85 11.42L55.85 11.42Q56.43 12.07 57.37 12.07L57.37 12.07L57.37 12.07Q58.02 12.07 58.44 11.79L58.44 11.79L58.44 11.79Q58.87 11.52 59.22 11.05L59.22 11.05L59.63 11.30L59.63 11.30Q59.30 12.14 58.58 12.60L58.58 12.60L58.58 12.60Q57.85 13.06 56.83 13.06L56.83 13.06L56.83 13.06Q56.08 13.06 55.49 12.82L55.49 12.82L55.49 12.82Q54.89 12.59 54.47 12.13L54.47 12.13L54.47 12.13Q54.04 11.68 53.81 11.03L53.81 11.03L53.81 11.03Q53.58 10.37 53.58 9.55L53.58 9.55L53.58 9.55Q53.58 8.75 53.84 8.09L53.84 8.09L53.84 8.09Q54.10 7.42 54.55 6.94L54.55 6.94L54.55 6.94Q55.01 6.47 55.62 6.20L55.62 6.20L55.62 6.20Q56.24 5.94 56.94 5.94L56.94 5.94L56.94 5.94Q57.55 5.94 58.07 6.14L58.07 6.14L58.07 6.14Q58.58 6.34 58.94 6.71L58.94 6.71L58.94 6.71Q59.30 7.07 59.51 7.60L59.51 7.60L59.51 7.60Q59.71 8.12 59.71 8.76L59.71 8.76L59.71 8.76Q59.71 8.97 59.68 9.16L59.68 9.16L59.68 9.16Q59.65 9.35 59.61 9.51L59.61 9.51ZM71.12 6.19L71.12 6.78L70.27 6.94L68.03 12.99L67.38 12.99L65.60 8.25L63.81 12.99L63.15 12.99L60.91 6.89L60.16 6.78L60.16 6.19L63.50 6.19L63.50 6.78L62.55 6.90L63.91 10.88L65.39 6.92L64.46 6.78L64.46 6.19L67.59 6.19L67.59 6.78L66.67 6.92L68.15 10.82L69.47 6.94L68.47 6.78L68.47 6.19L71.12 6.19ZM82.74 12.11L83.64 12.29L83.64 12.85L80.25 12.85L80.25 12.29L81.20 12.11L81.20 12.11Q81.21 11.59 81.21 10.99L81.21 10.99L81.21 10.99Q81.21 10.39 81.21 9.91L81.21 9.91L81.21 8.61L81.21 8.61Q81.21 7.73 80.97 7.36L80.97 7.36L80.97 7.36Q80.72 7 80.21 7L80.21 7L80.21 7Q79.80 7 79.36 7.24L79.36 7.24L79.36 7.24Q78.92 7.48 78.51 7.85L78.51 7.85L78.51 7.85Q78.53 7.99 78.53 8.15L78.53 8.15L78.53 8.15Q78.54 8.30 78.54 8.46L78.54 8.46L78.54 9.91L78.54 9.91Q78.54 10.39 78.54 10.99L78.54 10.99L78.54 10.99Q78.54 11.59 78.55 12.11L78.55 12.11L79.45 12.29L79.45 12.85L76.06 12.85L76.06 12.29L77 12.11L77 12.11Q77.01 11.59 77.01 10.99L77.01 10.99L77.01 10.99Q77.01 10.39 77.01 9.91L77.01 9.91L77.01 8.62L77.01 8.62Q77.01 7.74 76.78 7.37L76.78 7.37L76.78 7.37Q76.54 7 76.02 7L76.02 7L76.02 7Q75.60 7 75.17 7.23L75.17 7.23L75.17 7.23Q74.73 7.46 74.33 7.84L74.33 7.84L74.33 9.91L74.33 9.91Q74.33 10.37 74.33 10.98L74.33 10.98L74.33 10.98Q74.33 11.59 74.34 12.11L74.34 12.11L75.22 12.29L75.22 12.85L71.82 12.85L71.82 12.29L72.77 12.11L72.77 12.11Q72.79 11.58 72.79 10.98L72.79 10.98L72.79 10.98Q72.79 10.37 72.79 9.91L72.79 9.91L72.79 9.16L72.79 9.16Q72.79 8.58 72.77 8.23L72.77 8.23L72.77 8.23Q72.76 7.87 72.74 7.45L72.74 7.45L71.71 7.32L71.71 6.80L73.96 5.94L74.17 6.08L74.28 7.18L74.28 7.18Q74.80 6.58 75.37 6.26L75.37 6.26L75.37 6.26Q75.94 5.94 76.61 5.94L76.61 5.94L76.61 5.94Q77.32 5.94 77.76 6.24L77.76 6.24L77.76 6.24Q78.20 6.55 78.40 7.22L78.40 7.22L78.40 7.22Q78.95 6.55 79.53 6.24L79.53 6.24L79.53 6.24Q80.12 5.94 80.85 5.94L80.85 5.94L80.85 5.94Q81.77 5.94 82.25 6.52L82.25 6.52L82.25 6.52Q82.73 7.10 82.73 8.39L82.73 8.39L82.73 9.91L82.73 9.91Q82.73 10.39 82.73 10.99L82.73 10.99L82.73 10.99Q82.73 11.59 82.74 12.11L82.74 12.11ZM88.41 11.49L88.41 9.23L88.41 9.23Q88.09 9.32 87.80 9.42L87.80 9.42L87.80 9.42Q87.51 9.52 87.32 9.59L87.32 9.59L87.32 9.59Q86.56 9.88 86.32 10.26L86.32 10.26L86.32 10.26Q86.09 10.63 86.09 11.00L86.09 11.00L86.09 11.00Q86.09 11.28 86.16 11.45L86.16 11.45L86.16 11.45Q86.24 11.62 86.37 11.75L86.37 11.75L86.37 11.75Q86.67 12.05 87.18 12.05L87.18 12.05L87.18 12.05Q87.46 12.05 87.72 11.94L87.72 11.94L87.72 11.94Q87.98 11.82 88.41 11.49L88.41 11.49ZM90.90 11.83L91.22 12.11L91.22 12.11Q90.96 12.63 90.64 12.81L90.64 12.81L90.64 12.81Q90.33 12.99 89.88 12.99L89.88 12.99L89.88 12.99Q89.29 12.99 88.94 12.74L88.94 12.74L88.94 12.74Q88.59 12.49 88.47 12.05L88.47 12.05L88.47 12.05Q88.21 12.31 87.98 12.50L87.98 12.50L87.98 12.50Q87.75 12.68 87.52 12.81L87.52 12.81L87.52 12.81Q87.29 12.94 87.02 13.00L87.02 13.00L87.02 13.00Q86.76 13.06 86.44 13.06L86.44 13.06L86.44 13.06Q85.64 13.06 85.09 12.62L85.09 12.62L85.09 12.62Q84.55 12.18 84.55 11.34L84.55 11.34L84.55 11.34Q84.55 11.03 84.64 10.74L84.64 10.74L84.64 10.74Q84.74 10.44 85.02 10.16L85.02 10.16L85.02 10.16Q85.29 9.87 85.77 9.60L85.77 9.60L85.77 9.60Q86.25 9.34 87.01 9.07L87.01 9.07L87.01 9.07Q87.29 8.97 87.66 8.87L87.66 8.87L87.66 8.87Q88.03 8.76 88.41 8.65L88.41 8.65L88.41 8.27L88.41 8.27Q88.41 7.32 88.12 6.96L88.12 6.96L88.12 6.96Q87.84 6.59 87.15 6.59L87.15 6.59L87.15 6.59Q87.02 6.59 86.88 6.61L86.88 6.61L86.88 6.61Q86.73 6.62 86.58 6.65L86.58 6.65L86.38 7.55L86.38 7.55Q86.21 8.43 85.51 8.43L85.51 8.43L85.51 8.43Q85.20 8.43 85.01 8.25L85.01 8.25L85.01 8.25Q84.81 8.06 84.77 7.77L84.77 7.77L84.77 7.77Q84.91 6.96 85.67 6.45L85.67 6.45L85.67 6.45Q86.42 5.94 87.64 5.94L87.64 5.94L87.64 5.94Q88.84 5.94 89.40 6.52L89.40 6.52L89.40 6.52Q89.95 7.11 89.95 8.57L89.95 8.57L89.95 11.51L89.95 11.51Q89.95 12.17 90.36 12.17L90.36 12.17L90.36 12.17Q90.51 12.17 90.62 12.09L90.62 12.09L90.62 12.09Q90.73 12.01 90.83 11.90L90.83 11.90L90.90 11.83ZM94.67 8.68L95.13 8.83L95.13 8.83Q95.66 9.03 96.03 9.26L96.03 9.26L96.03 9.26Q96.39 9.49 96.61 9.75L96.61 9.75L96.61 9.75Q96.82 10.01 96.91 10.31L96.91 10.31L96.91 10.31Q97.01 10.61 97.01 10.93L97.01 10.93L97.01 10.93Q97.01 11.38 96.82 11.77L96.82 11.77L96.82 11.77Q96.63 12.17 96.26 12.45L96.26 12.45L96.26 12.45Q95.90 12.74 95.37 12.90L95.37 12.90L95.37 12.90Q94.84 13.06 94.16 13.06L94.16 13.06L94.16 13.06Q93.49 13.06 92.97 12.91L92.97 12.91L92.97 12.91Q92.44 12.75 91.90 12.45L91.90 12.45L91.87 10.88L92.81 10.88L93.02 12.10L93.02 12.10Q93.58 12.38 94.18 12.38L94.18 12.38L94.18 12.38Q94.92 12.38 95.26 12.12L95.26 12.12L95.26 12.12Q95.61 11.86 95.61 11.38L95.61 11.38L95.61 11.38Q95.61 10.98 95.31 10.72L95.31 10.72L95.31 10.72Q95.02 10.47 94.28 10.19L94.28 10.19L93.63 9.95L93.63 9.95Q92.82 9.63 92.38 9.16L92.38 9.16L92.38 9.16Q91.94 8.68 91.94 7.97L91.94 7.97L91.94 7.97Q91.94 7.53 92.11 7.16L92.11 7.16L92.11 7.16Q92.29 6.79 92.62 6.52L92.62 6.52L92.62 6.52Q92.96 6.24 93.45 6.09L93.45 6.09L93.45 6.09Q93.94 5.94 94.58 5.94L94.58 5.94L94.58 5.94Q95.19 5.94 95.66 6.08L95.66 6.08L95.66 6.08Q96.14 6.22 96.63 6.48L96.63 6.48L96.56 7.97L95.66 7.97L95.44 6.82L95.44 6.82Q95.24 6.72 95.02 6.66L95.02 6.66L95.02 6.66Q94.79 6.61 94.53 6.61L94.53 6.61L94.53 6.61Q93.95 6.61 93.64 6.86L93.64 6.86L93.64 6.86Q93.32 7.11 93.32 7.56L93.32 7.56L93.32 7.56Q93.32 7.92 93.60 8.16L93.60 8.16L93.60 8.16Q93.88 8.40 94.67 8.68L94.67 8.68ZM101.92 11.69L102.28 12.12L102.28 12.12Q102.02 12.50 101.56 12.75L101.56 12.75L101.56 12.75Q101.09 12.99 100.44 12.99L100.44 12.99L100.44 12.99Q99.64 12.99 99.18 12.59L99.18 12.59L99.18 12.59Q98.71 12.18 98.71 11.33L98.71 11.33L98.71 11.33Q98.71 10.98 98.72 10.69L98.72 10.69L98.72 10.69Q98.73 10.40 98.73 10.00L98.73 10.00L98.73 7L97.69 7L97.69 6.31L98.85 6.16L99.23 4.23L100.34 4.23L100.30 6.19L102.03 6.19L102.03 7L100.28 7L100.28 11.05L100.28 11.05Q100.28 11.58 100.49 11.82L100.49 11.82L100.49 11.82Q100.70 12.05 101.04 12.05L101.04 12.05L101.04 12.05Q101.22 12.05 101.44 11.98L101.44 11.98L101.44 11.98Q101.65 11.90 101.92 11.69L101.92 11.69ZM104.55 8.86L106.65 8.86L106.65 8.86Q107.16 8.86 107.33 8.65L107.33 8.65L107.33 8.65Q107.51 8.44 107.51 8.06L107.51 8.06L107.51 8.06Q107.51 7.43 107.15 7.01L107.15 7.01L107.15 7.01Q106.79 6.59 106.26 6.59L106.26 6.59L106.26 6.59Q105.99 6.59 105.71 6.71L105.71 6.71L105.71 6.71Q105.43 6.83 105.19 7.10L105.19 7.10L105.19 7.10Q104.94 7.36 104.78 7.80L104.78 7.80L104.78 7.80Q104.61 8.23 104.55 8.86L104.55 8.86ZM108.91 9.51L104.52 9.51L104.52 9.51Q104.55 10.78 105.14 11.42L105.14 11.42L105.14 11.42Q105.73 12.07 106.67 12.07L106.67 12.07L106.67 12.07Q107.31 12.07 107.74 11.79L107.74 11.79L107.74 11.79Q108.16 11.52 108.51 11.05L108.51 11.05L108.92 11.30L108.92 11.30Q108.60 12.14 107.87 12.60L107.87 12.60L107.87 12.60Q107.14 13.06 106.12 13.06L106.12 13.06L106.12 13.06Q105.38 13.06 104.78 12.82L104.78 12.82L104.78 12.82Q104.19 12.59 103.76 12.13L103.76 12.13L103.76 12.13Q103.33 11.68 103.10 11.03L103.10 11.03L103.10 11.03Q102.87 10.37 102.87 9.55L102.87 9.55L102.87 9.55Q102.87 8.75 103.13 8.09L103.13 8.09L103.13 8.09Q103.39 7.42 103.84 6.94L103.84 6.94L103.84 6.94Q104.30 6.47 104.92 6.20L104.92 6.20L104.92 6.20Q105.53 5.94 106.23 5.94L106.23 5.94L106.23 5.94Q106.85 5.94 107.36 6.14L107.36 6.14L107.36 6.14Q107.87 6.34 108.23 6.71L108.23 6.71L108.23 6.71Q108.60 7.07 108.80 7.60L108.80 7.60L108.80 7.60Q109.00 8.12 109.00 8.76L109.00 8.76L109.00 8.76Q109.00 8.97 108.98 9.16L108.98 9.16L108.98 9.16Q108.95 9.35 108.91 9.51L108.91 9.51ZM112.48 6.08L112.62 7.56L112.62 7.56Q113.01 6.80 113.53 6.37L113.53 6.37L113.53 6.37Q114.04 5.94 114.58 5.94L114.58 5.94L114.58 5.94Q114.87 5.94 115.18 6.10L115.18 6.10L115.18 6.10Q115.49 6.27 115.57 6.71L115.57 6.71L115.57 6.71Q115.57 7.11 115.32 7.36L115.32 7.36L115.32 7.36Q115.07 7.60 114.66 7.60L114.66 7.60L114.66 7.60Q114.17 7.60 113.72 7.14L113.72 7.14L113.65 7.07L113.65 7.07Q113.33 7.35 113.07 7.71L113.07 7.71L113.07 7.71Q112.81 8.08 112.63 8.57L112.63 8.57L112.63 9.91L112.63 9.91Q112.63 10.36 112.63 10.96L112.63 10.96L112.63 10.96Q112.63 11.55 112.64 12.08L112.64 12.08L113.76 12.29L113.76 12.85L110.12 12.85L110.12 12.29L111.06 12.11L111.06 12.11Q111.08 11.59 111.08 10.98L111.08 10.98L111.08 10.98Q111.08 10.37 111.08 9.91L111.08 9.91L111.08 9.16L111.08 9.16Q111.08 8.58 111.06 8.23L111.06 8.23L111.06 8.23Q111.05 7.87 111.03 7.45L111.03 7.45L110.01 7.32L110.01 6.80L112.27 5.94L112.48 6.08Z"></path></g><!----><g data-v-423bf9ae="" id="58e42997-59ea-4406-9f11-fd008cc0984c" transform="matrix(1.5031601586001353,0,0,1.5031601586001353,-2.1010716470957718,-2.0043834589418665)" stroke="none" fill="white"><path d="M61 30a1 1 0 0 0 1-1v-7a9.011 9.011 0 0 0-9-9h-4v-1.382a3.988 3.988 0 1 0-6.375-4.753 1 1 0 0 0 1.69 1.07A2 2 0 1 1 46 11a1.966 1.966 0 0 1-.977-.27 1 1 0 0 0-1.338.335 1.985 1.985 0 0 1-3.488-.22 1 1 0 0 0-1.48-.392 3.014 3.014 0 0 1-.971.44 1 1 0 0 0-.746.967V17a2 2 0 0 1-4 0v-.783a1 1 0 0 0-2 0V17a3.9 3.9 0 0 0 .043.421 41.294 41.294 0 0 0-16.659.7L13 18.469v-.61a4 4 0 0 0 2.894-2.941 4.919 4.919 0 0 0 1.488-.532 5.965 5.965 0 0 0 5.236 0 5.039 5.039 0 0 0 5.666-.637 5.982 5.982 0 0 0 4.117-.258 1 1 0 1 0-.8-1.832 3.966 3.966 0 0 1-3.178.014 1 1 0 0 0-1.155.267 3.02 3.02 0 0 1-4.025.477 1 1 0 0 0-1.122-.04 3.979 3.979 0 0 1-4.238 0 1 1 0 0 0-1.122.04A2.974 2.974 0 0 1 15 13a1 1 0 0 0-1 1 2 2 0 1 1-2.544-1.911 1 1 0 0 0 .684-1.245A2.936 2.936 0 0 1 12 10a2.964 2.964 0 0 1 3.694-2.909 1 1 0 0 0 1.047-.4 3.979 3.979 0 0 1 6.518 0 1 1 0 0 0 1.047.4 2.213 2.213 0 0 1 .828-.076l.165.02a.992.992 0 0 0 1.021-.6 4 4 0 0 1 7-.669 1 1 0 0 0 .739.436 1.014 1.014 0 0 0 .8-.3A2.975 2.975 0 0 1 37 5a3.006 3.006 0 0 1 2.453 1.273 1 1 0 1 0 1.634-1.152A5.007 5.007 0 0 0 37 3a4.954 4.954 0 0 0-2.713.8A6 6 0 0 0 24.8 5c-.1.005-.208.014-.315.026a5.972 5.972 0 0 0-8.972 0A4.534 4.534 0 0 0 15 5a5.006 5.006 0 0 0-5 5 4.354 4.354 0 0 0 .033.532A3.978 3.978 0 0 0 11 17.858V27a1 1 0 0 0 2 0v-6.469l1.869-.468a39.29 39.29 0 0 1 16.457-.578c.215.038.43.068.646.1a3.93 3.93 0 0 0 5.541.5c.3.007.59.015.888.015a42.965 42.965 0 0 0 5.733-.4 1 1 0 0 0-.268-1.982 41.336 41.336 0 0 1-5.039.376A3.921 3.921 0 0 0 39 17v-4.368A4.007 4.007 0 0 0 42 14a3.966 3.966 0 0 0 2.831-1.181A3.867 3.867 0 0 0 46 13a3.939 3.939 0 0 0 1-.142V51a3 3 0 0 1-3 3H29.454l-.476-.476a6.987 6.987 0 0 0 3.722-1.937 1 1 0 0 0 0-1.414l-1.456-1.456a6.976 6.976 0 0 0 .654-.594A2.97 2.97 0 0 0 34 49a3 3 0 0 0 3-3V28a3 3 0 0 0-6 0v5a1 1 0 0 0 2 0v-5a1 1 0 0 1 2 0v18a1 1 0 0 1-1 1 .979.979 0 0 1-.892-.586 6.97 6.97 0 0 0 .762-3.144 1 1 0 0 0-1-1h-1.5a6.321 6.321 0 0 0 1.6-5.759 1 1 0 0 0-.75-.749 6.278 6.278 0 0 0-3.22.109V28a3 3 0 0 0-6 0v7.309a6.887 6.887 0 0 0-2.487 1.6 7.2 7.2 0 0 0-.5.573l-1.46-1.454a1 1 0 0 0-1.413 0c-.05.051-.094.106-.143.158V28a1 1 0 0 1 2 0v4.887a1 1 0 0 0 2 0V28a3 3 0 0 0-6 0v11.536l-.683-.683a1 1 0 0 0-.707-.293.986.986 0 0 0-.607.229V31a1 1 0 0 0-2 0v10.2l-.222-.222a1 1 0 0 0-1.414 0 9 9 0 0 0 0 12.728l.707.707-.707.708a2 2 0 0 1-2.828 0 1 1 0 0 0-1.414 0L2.293 57.95a1 1 0 0 0 0 1.414 8 8 0 0 0 11.313 0l.708-.707.707.707a8.942 8.942 0 0 0 4.771 2.49.99.99 0 0 0 .178.016 1 1 0 0 0 .175-1.985 6.953 6.953 0 0 1-3.71-1.935l-1.794-1.794-.278-.278a7 7 0 0 1 9.143.658l2.07 2.07a6.967 6.967 0 0 1-1.936 1.013 1 1 0 1 0 .644 1.894 8.923 8.923 0 0 0 3.465-2.149 1 1 0 0 0 0-1.414l-.481-.481A6.96 6.96 0 0 0 29.678 56H44a5.006 5.006 0 0 0 5-5v-5h4a9.011 9.011 0 0 0 9-9v-4a1 1 0 0 0-2 0v4a7.008 7.008 0 0 1-7 7h-4v-3h3a5.006 5.006 0 0 0 5-5V23a5.006 5.006 0 0 0-5-5 1 1 0 0 0 0 2 3 3 0 0 1 3 3v13a3 3 0 0 1-3 3h-3V15h4a7.008 7.008 0 0 1 7 7v7a1 1 0 0 0 1 1zM27.018 51.565a7 7 0 0 0-2.286-1.507A8 8 0 0 0 26.3 47.5a4.943 4.943 0 0 1 2.154 1.258l2.052 2.052a5 5 0 0 1-3.488.755zM28.3 40.433a4.777 4.777 0 0 1-1.505 3.973 8.129 8.129 0 0 0-.188-1.531 1 1 0 0 0-.749-.749 8.127 8.127 0 0 0-1.531-.187 4.766 4.766 0 0 1 3.973-1.506zm-3.529 3.529a6.006 6.006 0 0 1-1.516 4.769 8.027 8.027 0 0 0-.184-2.319 1 1 0 0 0-.749-.75A8.018 8.018 0 0 0 20 45.476a6.027 6.027 0 0 1 4.766-1.514zm5.046 3.338a6.926 6.926 0 0 0-1.8-1.274 6.884 6.884 0 0 0 1.412-1.756h2.341a4.989 4.989 0 0 1-1.953 3.03zm.481-6.835a6.959 6.959 0 0 0-.16-1.125 1 1 0 0 0-.75-.75 7.034 7.034 0 0 0-1.123-.161 4.09 4.09 0 0 1 .219-.153 1.048 1.048 0 0 0 .141-.094 4.291 4.291 0 0 1 2.492-.572 4.237 4.237 0 0 1-.817 2.855zM25 28a1 1 0 0 1 2 0v8.893a6.428 6.428 0 0 0-.54.465v-1.5a1 1 0 0 0-1-1c-.155 0-.307.012-.46.022zm-.54 8.958V39.3a6.855 6.855 0 0 0-1.751 1.4 7.108 7.108 0 0 0-1.28-1.8 5.244 5.244 0 0 1 .5-.578 4.912 4.912 0 0 1 2.531-1.364zm-6.538 1.266l2.047 2.04a4.971 4.971 0 0 1 1.272 2.162 7.974 7.974 0 0 0-2.56 1.56 6.989 6.989 0 0 0-1.507-2.273 4.687 4.687 0 0 1 .748-3.489zm-4.241 2.822l1.6 1.594.042.043.415.414a4.969 4.969 0 0 1 1.421 3.1 8.042 8.042 0 0 0-1.469.885 8.931 8.931 0 0 0-2.079-3.275l-.69-.69a4.865 4.865 0 0 1 .76-2.071zm-4.953 6.3a6.949 6.949 0 0 1 1.393-4.193l2.071 2.072a7.012 7.012 0 0 1 .657 9.142l-2.071-2.071a6.954 6.954 0 0 1-2.05-4.953zm4.171 9.9l-.707.707a6 6 0 0 1-7.719.649l1.445-1.446a4.007 4.007 0 0 0 4.86-.617l.707-.707zm2.901-4.328a9.064 9.064 0 0 0 .389-3.639A5.951 5.951 0 0 1 21.23 47.5a5.952 5.952 0 0 1-1.775 5.032 8.972 8.972 0 0 0-3.651.388zm9.809 2.9l-.693-.693a8.951 8.951 0 0 0-3.273-2.083 8.071 8.071 0 0 0 .877-1.452 4.945 4.945 0 0 1 3.1 1.41l2.053 2.053a4.863 4.863 0 0 1-2.06.762z"></path><path d="M44 35a1 1 0 0 0 1-1v-6a3 3 0 0 0-6 0v18a3 3 0 0 0 6 0v-8a1 1 0 0 0-2 0v8a1 1 0 0 1-2 0V28a1 1 0 0 1 2 0v6a1 1 0 0 0 1 1z"></path></g><!----><g data-v-423bf9ae="" id="61c27f48-a039-4c43-b0f0-6374cb0d6755" fill="white" transform="matrix(2.716219511992763,0,0,2.716219511992763,109.70036709216663,50.11296166703359)"><path d="M7.43 3.78L4.16 9.42L4.16 13.02L3.46 13.02L3.46 9.42L0.18 3.78L1.01 3.78L3.81 8.69L6.61 3.78L7.43 3.78ZM19.40 3.64L19.40 3.64Q20.71 3.64 21.66 4.22L21.66 4.22L21.66 4.22Q22.62 4.80 23.14 5.87L23.14 5.87L23.14 5.87Q23.66 6.94 23.66 8.40L23.66 8.40L23.66 8.40Q23.66 9.86 23.14 10.93L23.14 10.93L23.14 10.93Q22.62 12.00 21.66 12.58L21.66 12.58L21.66 12.58Q20.71 13.16 19.40 13.16L19.40 13.16L19.40 13.16Q18.10 13.16 17.14 12.58L17.14 12.58L17.14 12.58Q16.18 12.00 15.67 10.93L15.67 10.93L15.67 10.93Q15.15 9.86 15.15 8.40L15.15 8.40L15.15 8.40Q15.15 6.94 15.67 5.87L15.67 5.87L15.67 5.87Q16.18 4.80 17.14 4.22L17.14 4.22L17.14 4.22Q18.10 3.64 19.40 3.64L19.40 3.64ZM19.40 4.28L19.40 4.28Q18.33 4.28 17.54 4.78L17.54 4.78L17.54 4.78Q16.74 5.28 16.32 6.21L16.32 6.21L16.32 6.21Q15.89 7.14 15.89 8.40L15.89 8.40L15.89 8.40Q15.89 9.66 16.32 10.59L16.32 10.59L16.32 10.59Q16.74 11.52 17.54 12.02L17.54 12.02L17.54 12.02Q18.33 12.52 19.40 12.52L19.40 12.52L19.40 12.52Q20.48 12.52 21.28 12.02L21.28 12.02L21.28 12.02Q22.08 11.52 22.51 10.59L22.51 10.59L22.51 10.59Q22.93 9.66 22.93 8.40L22.93 8.40L22.93 8.40Q22.93 7.14 22.51 6.21L22.51 6.21L22.51 6.21Q22.08 5.28 21.28 4.78L21.28 4.78L21.28 4.78Q20.48 4.28 19.40 4.28L19.40 4.28ZM40.00 3.78L40.00 9.65L40.00 9.65Q40.00 11.35 39.07 12.26L39.07 12.26L39.07 12.26Q38.15 13.16 36.44 13.16L36.44 13.16L36.44 13.16Q34.73 13.16 33.80 12.26L33.80 12.26L33.80 12.26Q32.87 11.35 32.87 9.65L32.87 9.65L32.87 3.78L33.57 3.78L33.57 9.51L33.57 9.51Q33.57 10.99 34.30 11.75L34.30 11.75L34.30 11.75Q35.03 12.52 36.44 12.52L36.44 12.52L36.44 12.52Q37.84 12.52 38.57 11.75L38.57 11.75L38.57 11.75Q39.30 10.99 39.30 9.51L39.30 9.51L39.30 3.78L40.00 3.78ZM56.74 13.02L55.92 13.02L53.27 9.02L53.23 9.02L50.50 9.02L50.50 13.02L49.80 13.02L49.80 3.78L53.23 3.78L53.23 3.78Q54.61 3.78 55.43 4.48L55.43 4.48L55.43 4.48Q56.25 5.18 56.25 6.40L56.25 6.40L56.25 6.40Q56.25 7.41 55.66 8.07L55.66 8.07L55.66 8.07Q55.08 8.74 54.05 8.93L54.05 8.93L56.74 13.02ZM50.50 4.42L50.50 8.36L53.21 8.36L53.21 8.36Q54.33 8.36 54.93 7.85L54.93 7.85L54.93 7.85Q55.52 7.35 55.52 6.40L55.52 6.40L55.52 6.40Q55.52 5.45 54.93 4.93L54.93 4.93L54.93 4.93Q54.33 4.42 53.21 4.42L53.21 4.42L50.50 4.42ZM80.81 3.64L80.81 3.64Q82.11 3.64 83.07 4.22L83.07 4.22L83.07 4.22Q84.03 4.80 84.55 5.87L84.55 5.87L84.55 5.87Q85.06 6.94 85.06 8.40L85.06 8.40L85.06 8.40Q85.06 9.86 84.55 10.93L84.55 10.93L84.55 10.93Q84.03 12.00 83.07 12.58L83.07 12.58L83.07 12.58Q82.11 13.16 80.81 13.16L80.81 13.16L80.81 13.16Q79.51 13.16 78.55 12.58L78.55 12.58L78.55 12.58Q77.59 12.00 77.07 10.93L77.07 10.93L77.07 10.93Q76.55 9.86 76.55 8.40L76.55 8.40L76.55 8.40Q76.55 6.94 77.07 5.87L77.07 5.87L77.07 5.87Q77.59 4.80 78.55 4.22L78.55 4.22L78.55 4.22Q79.51 3.64 80.81 3.64L80.81 3.64ZM80.81 4.28L80.81 4.28Q79.73 4.28 78.94 4.78L78.94 4.78L78.94 4.78Q78.15 5.28 77.72 6.21L77.72 6.21L77.72 6.21Q77.29 7.14 77.29 8.40L77.29 8.40L77.29 8.40Q77.29 9.66 77.72 10.59L77.72 10.59L77.72 10.59Q78.15 11.52 78.94 12.02L78.94 12.02L78.94 12.02Q79.73 12.52 80.81 12.52L80.81 12.52L80.81 12.52Q81.89 12.52 82.68 12.02L82.68 12.02L82.68 12.02Q83.48 11.52 83.91 10.59L83.91 10.59L83.91 10.59Q84.34 9.66 84.34 8.40L84.34 8.40L84.34 8.40Q84.34 7.14 83.91 6.21L83.91 6.21L83.91 6.21Q83.48 5.28 82.68 4.78L82.68 4.78L82.68 4.78Q81.89 4.28 80.81 4.28L80.81 4.28ZM98.84 6.54L96.98 13.02L96.11 13.02L93.23 3.78L93.98 3.78L96.54 12.45L98.97 3.78L99.78 3.78L102.20 12.46L104.79 3.78L105.50 3.78L102.62 13.02L101.75 13.02L99.89 6.54L99.37 4.54L99.36 4.54L98.84 6.54ZM121.48 3.78L121.48 13.02L120.61 13.02L115.71 5.77L115.02 4.54L115.01 4.54L115.05 5.70L115.05 13.02L114.38 13.02L114.38 3.78L115.26 3.78L120.15 11.02L120.85 12.26L120.82 11.10L120.82 3.78L121.48 3.78ZM142.77 13.02L142.77 3.78L146.03 3.78L146.03 3.78Q147.55 3.78 148.30 4.41L148.30 4.41L148.30 4.41Q149.04 5.04 149.04 6.23L149.04 6.23L149.04 6.23Q149.04 7.04 148.60 7.60L148.60 7.60L148.60 7.60Q148.16 8.16 147.35 8.33L147.35 8.33L147.35 8.34L147.35 8.34Q148.25 8.48 148.77 9.07L148.77 9.07L148.77 9.07Q149.30 9.66 149.30 10.53L149.30 10.53L149.30 10.53Q149.30 11.72 148.45 12.37L148.45 12.37L148.45 12.37Q147.60 13.02 146.03 13.02L146.03 13.02L142.77 13.02ZM143.47 8.04L146.05 8.04L146.05 8.04Q148.30 8.04 148.30 6.23L148.30 6.23L148.30 6.23Q148.30 4.42 146.05 4.42L146.05 4.42L143.47 4.42L143.47 8.04ZM143.47 12.38L146.17 12.38L146.17 12.38Q147.35 12.38 147.95 11.90L147.95 11.90L147.95 11.90Q148.55 11.42 148.55 10.53L148.55 10.53L148.55 10.53Q148.55 9.62 147.95 9.15L147.95 9.15L147.95 9.15Q147.35 8.68 146.17 8.68L146.17 8.68L143.47 8.68L143.47 12.38ZM159.32 12.38L165.16 12.38L165.16 13.02L158.62 13.02L158.62 3.78L164.93 3.78L164.93 4.42L159.32 4.42L159.32 7.99L163.76 7.99L163.76 8.65L159.32 8.65L159.32 12.38ZM174.89 12.38L180.73 12.38L180.73 13.02L174.19 13.02L174.19 3.78L180.50 3.78L180.50 4.42L174.89 4.42L174.89 7.99L179.33 7.99L179.33 8.65L174.89 8.65L174.89 12.38ZM196.70 13.02L195.87 13.02L193.23 9.02L193.19 9.02L190.46 9.02L190.46 13.02L189.76 13.02L189.76 3.78L193.19 3.78L193.19 3.78Q194.57 3.78 195.39 4.48L195.39 4.48L195.39 4.48Q196.21 5.18 196.21 6.40L196.21 6.40L196.21 6.40Q196.21 7.41 195.62 8.07L195.62 8.07L195.62 8.07Q195.03 8.74 194.01 8.93L194.01 8.93L196.70 13.02ZM190.46 4.42L190.46 8.36L193.17 8.36L193.17 8.36Q194.29 8.36 194.89 7.85L194.89 7.85L194.89 7.85Q195.48 7.35 195.48 6.40L195.48 6.40L195.48 6.40Q195.48 5.45 194.89 4.93L194.89 4.93L194.89 4.93Q194.29 4.42 193.17 4.42L193.17 4.42L190.46 4.42Z"></path></g></svg>