<svg data-v-fde0c5aa="" xmlns="http://www.w3.org/2000/svg" viewBox="0 0 300 300" class="font"><!----><defs data-v-fde0c5aa=""><!----></defs><rect data-v-fde0c5aa="" fill="#E47330" x="0" y="0" width="300px" height="300px" class="logo-background-square"></rect><defs data-v-fde0c5aa=""><!----></defs><g data-v-fde0c5aa="" id="6fd20b11-6d68-4f20-9c96-7594f4f00879" fill="#BDD331" transform="matrix(1.909556477287138,0,0,1.909556477287138,39.31255964086021,134.9526942851722)"><path d="M12.19 4.23L10.99 4.35L10.99 4.35Q10.96 5.24 10.96 6.13L10.96 6.13L10.96 6.13Q10.96 7.01 10.96 7.92L10.96 7.92L10.96 8.51L10.96 8.51Q10.96 9.41 10.96 10.30L10.96 10.30L10.96 10.30Q10.96 11.19 10.99 12.08L10.99 12.08L12.19 12.21L12.19 12.85L8.09 12.85L8.09 12.21L9.25 12.08L9.25 12.08Q9.28 11.20 9.28 10.31L9.28 10.31L9.28 10.31Q9.28 9.42 9.28 8.51L9.28 8.51L9.28 5.80L6.10 12.85L5.60 12.85L2.41 5.77L2.41 12.03L3.64 12.21L3.64 12.85L0.36 12.85L0.36 12.21L1.67 12.03L1.67 4.37L0.45 4.23L0.45 3.58L3.11 3.58L6.33 10.61L9.53 3.58L12.19 3.58L12.19 4.23ZM16.86 11.49L16.86 9.23L16.86 9.23Q16.53 9.32 16.25 9.42L16.25 9.42L16.25 9.42Q15.96 9.52 15.76 9.59L15.76 9.59L15.76 9.59Q15.01 9.88 14.77 10.26L14.77 10.26L14.77 10.26Q14.53 10.63 14.53 11.00L14.53 11.00L14.53 11.00Q14.53 11.28 14.61 11.45L14.61 11.45L14.61 11.45Q14.69 11.62 14.81 11.75L14.81 11.75L14.81 11.75Q15.12 12.05 15.62 12.05L15.62 12.05L15.62 12.05Q15.90 12.05 16.16 11.94L16.16 11.94L16.16 11.94Q16.42 11.82 16.86 11.49L16.86 11.49ZM19.35 11.83L19.67 12.11L19.67 12.11Q19.40 12.63 19.09 12.81L19.09 12.81L19.09 12.81Q18.77 12.99 18.33 12.99L18.33 12.99L18.33 12.99Q17.74 12.99 17.39 12.74L17.39 12.74L17.39 12.74Q17.04 12.49 16.91 12.05L16.91 12.05L16.91 12.05Q16.66 12.31 16.43 12.50L16.43 12.50L16.43 12.50Q16.20 12.68 15.97 12.81L15.97 12.81L15.97 12.81Q15.74 12.94 15.47 13.00L15.47 13.00L15.47 13.00Q15.20 13.06 14.88 13.06L14.88 13.06L14.88 13.06Q14.08 13.06 13.54 12.62L13.54 12.62L13.54 12.62Q12.99 12.18 12.99 11.34L12.99 11.34L12.99 11.34Q12.99 11.03 13.09 10.74L13.09 10.74L13.09 10.74Q13.19 10.44 13.46 10.16L13.46 10.16L13.46 10.16Q13.73 9.87 14.22 9.60L14.22 9.60L14.22 9.60Q14.70 9.34 15.46 9.07L15.46 9.07L15.46 9.07Q15.74 8.97 16.11 8.87L16.11 8.87L16.11 8.87Q16.48 8.76 16.86 8.65L16.86 8.65L16.86 8.27L16.86 8.27Q16.86 7.32 16.57 6.96L16.57 6.96L16.57 6.96Q16.28 6.59 15.60 6.59L15.60 6.59L15.60 6.59Q15.47 6.59 15.32 6.61L15.32 6.61L15.32 6.61Q15.18 6.62 15.02 6.65L15.02 6.65L14.83 7.55L14.83 7.55Q14.66 8.43 13.96 8.43L13.96 8.43L13.96 8.43Q13.65 8.43 13.45 8.25L13.45 8.25L13.45 8.25Q13.26 8.06 13.22 7.77L13.22 7.77L13.22 7.77Q13.36 6.96 14.11 6.45L14.11 6.45L14.11 6.45Q14.87 5.94 16.09 5.94L16.09 5.94L16.09 5.94Q17.29 5.94 17.84 6.52L17.84 6.52L17.84 6.52Q18.40 7.11 18.40 8.57L18.40 8.57L18.40 11.51L18.40 11.51Q18.40 12.17 18.80 12.17L18.80 12.17L18.80 12.17Q18.96 12.17 19.07 12.09L19.07 12.09L19.07 12.09Q19.18 12.01 19.28 11.90L19.28 11.90L19.35 11.83ZM24.99 11.52L24.99 7.45L24.99 7.45Q24.25 6.87 23.63 6.87L23.63 6.87L23.63 6.87Q23.28 6.87 22.97 7.03L22.97 7.03L22.97 7.03Q22.65 7.18 22.41 7.51L22.41 7.51L22.41 7.51Q22.16 7.84 22.02 8.34L22.02 8.34L22.02 8.34Q21.88 8.83 21.88 9.51L21.88 9.51L21.88 9.51Q21.88 10.84 22.37 11.47L22.37 11.47L22.37 11.47Q22.85 12.11 23.59 12.11L23.59 12.11L23.59 12.11Q24.29 12.11 24.99 11.52L24.99 11.52ZM26.54 12.11L27.51 12.29L27.51 12.85L25.16 12.99L25.05 12.12L25.05 12.12Q24.64 12.57 24.16 12.82L24.16 12.82L24.16 12.82Q23.69 13.06 23.04 13.06L23.04 13.06L23.04 13.06Q22.43 13.06 21.91 12.82L21.91 12.82L21.91 12.82Q21.39 12.59 21.02 12.13L21.02 12.13L21.02 12.13Q20.65 11.68 20.44 11.03L20.44 11.03L20.44 11.03Q20.23 10.37 20.23 9.55L20.23 9.55L20.23 9.55Q20.23 8.72 20.46 8.06L20.46 8.06L20.46 8.06Q20.69 7.39 21.09 6.92L21.09 6.92L21.09 6.92Q21.49 6.44 22.04 6.19L22.04 6.19L22.04 6.19Q22.58 5.94 23.21 5.94L23.21 5.94L23.21 5.94Q24.30 5.94 25.06 6.78L25.06 6.78L25.06 4.00L23.90 3.86L23.90 3.33L26.40 2.70L26.60 2.81L26.54 4.80L26.54 12.11ZM30.04 8.86L32.14 8.86L32.14 8.86Q32.65 8.86 32.82 8.65L32.82 8.65L32.82 8.65Q33.00 8.44 33.00 8.06L33.00 8.06L33.00 8.06Q33.00 7.43 32.64 7.01L32.64 7.01L32.64 7.01Q32.28 6.59 31.75 6.59L31.75 6.59L31.75 6.59Q31.49 6.59 31.21 6.71L31.21 6.71L31.21 6.71Q30.93 6.83 30.68 7.10L30.68 7.10L30.68 7.10Q30.44 7.36 30.27 7.80L30.27 7.80L30.27 7.80Q30.10 8.23 30.04 8.86L30.04 8.86ZM34.40 9.51L30.02 9.51L30.02 9.51Q30.04 10.78 30.63 11.42L30.63 11.42L30.63 11.42Q31.22 12.07 32.16 12.07L32.16 12.07L32.16 12.07Q32.80 12.07 33.23 11.79L33.23 11.79L33.23 11.79Q33.66 11.52 34.01 11.05L34.01 11.05L34.41 11.30L34.41 11.30Q34.09 12.14 33.36 12.60L33.36 12.60L33.36 12.60Q32.63 13.06 31.61 13.06L31.61 13.06L31.61 13.06Q30.87 13.06 30.28 12.82L30.28 12.82L30.28 12.82Q29.68 12.59 29.25 12.13L29.25 12.13L29.25 12.13Q28.83 11.68 28.60 11.03L28.60 11.03L28.60 11.03Q28.36 10.37 28.36 9.55L28.36 9.55L28.36 9.55Q28.36 8.75 28.62 8.09L28.62 8.09L28.62 8.09Q28.88 7.42 29.34 6.94L29.34 6.94L29.34 6.94Q29.79 6.47 30.41 6.20L30.41 6.20L30.41 6.20Q31.02 5.94 31.72 5.94L31.72 5.94L31.72 5.94Q32.34 5.94 32.85 6.14L32.85 6.14L32.85 6.14Q33.36 6.34 33.73 6.71L33.73 6.71L33.73 6.71Q34.09 7.07 34.29 7.60L34.29 7.60L34.29 7.60Q34.50 8.12 34.50 8.76L34.50 8.76L34.50 8.76Q34.50 8.97 34.47 9.16L34.47 9.16L34.47 9.16Q34.44 9.35 34.40 9.51L34.40 9.51ZM41.71 12.14L42.34 12.14L42.34 12.14Q43.75 12.14 44.32 11.64L44.32 11.64L44.32 11.64Q44.88 11.14 44.88 10.25L44.88 10.25L44.88 10.25Q44.88 9.28 44.30 8.83L44.30 8.83L44.30 8.83Q43.71 8.37 42.35 8.37L42.35 8.37L41.68 8.37L41.68 8.37Q41.68 9.38 41.68 10.30L41.68 10.30L41.68 10.30Q41.68 11.23 41.71 12.14L41.71 12.14ZM42.53 4.30L41.71 4.30L41.71 4.30Q41.68 5.14 41.68 5.98L41.68 5.98L41.68 5.98Q41.68 6.82 41.68 7.67L41.68 7.67L42.31 7.67L42.31 7.67Q43.44 7.67 43.96 7.25L43.96 7.25L43.96 7.25Q44.48 6.83 44.48 5.95L44.48 5.95L44.48 5.95Q44.48 5.07 44.00 4.68L44.00 4.68L44.00 4.68Q43.53 4.30 42.53 4.30L42.53 4.30ZM38.75 3.58L42.98 3.58L42.98 3.58Q44.55 3.58 45.33 4.22L45.33 4.22L45.33 4.22Q46.10 4.86 46.10 5.88L46.10 5.88L46.10 5.88Q46.10 6.58 45.68 7.16L45.68 7.16L45.68 7.16Q45.25 7.74 44.23 7.98L44.23 7.98L44.23 7.98Q44.87 8.09 45.32 8.31L45.32 8.31L45.32 8.31Q45.77 8.53 46.05 8.82L46.05 8.82L46.05 8.82Q46.34 9.11 46.47 9.48L46.47 9.48L46.47 9.48Q46.59 9.86 46.59 10.26L46.59 10.26L46.59 10.26Q46.59 10.74 46.40 11.20L46.40 11.20L46.40 11.20Q46.21 11.66 45.75 12.03L45.75 12.03L45.75 12.03Q45.29 12.40 44.50 12.63L44.50 12.63L44.50 12.63Q43.71 12.85 42.52 12.85L42.52 12.85L38.75 12.85L38.75 12.21L39.96 12.08L39.96 12.08Q39.98 11.20 39.98 10.31L39.98 10.31L39.98 10.31Q39.98 9.42 39.98 8.51L39.98 8.51L39.98 7.92L39.98 7.92Q39.98 7.03 39.98 6.14L39.98 6.14L39.98 6.14Q39.98 5.25 39.96 4.35L39.96 4.35L38.75 4.23L38.75 3.58ZM49.98 6.08L50.12 7.56L50.12 7.56Q50.51 6.80 51.03 6.37L51.03 6.37L51.03 6.37Q51.55 5.94 52.08 5.94L52.08 5.94L52.08 5.94Q52.37 5.94 52.68 6.10L52.68 6.10L52.68 6.10Q52.99 6.27 53.07 6.71L53.07 6.71L53.07 6.71Q53.07 7.11 52.82 7.36L52.82 7.36L52.82 7.36Q52.57 7.60 52.16 7.60L52.16 7.60L52.16 7.60Q51.67 7.60 51.23 7.14L51.23 7.14L51.16 7.07L51.16 7.07Q50.83 7.35 50.58 7.71L50.58 7.71L50.58 7.71Q50.32 8.08 50.13 8.57L50.13 8.57L50.13 9.91L50.13 9.91Q50.13 10.36 50.13 10.96L50.13 10.96L50.13 10.96Q50.13 11.55 50.15 12.08L50.15 12.08L51.27 12.29L51.27 12.85L47.63 12.85L47.63 12.29L48.57 12.11L48.57 12.11Q48.58 11.59 48.58 10.98L48.58 10.98L48.58 10.98Q48.58 10.37 48.58 9.91L48.58 9.91L48.58 9.16L48.58 9.16Q48.58 8.58 48.57 8.23L48.57 8.23L48.57 8.23Q48.55 7.87 48.54 7.45L48.54 7.45L47.52 7.32L47.52 6.80L49.77 5.94L49.98 6.08ZM55.26 8.86L57.36 8.86L57.36 8.86Q57.86 8.86 58.04 8.65L58.04 8.65L58.04 8.65Q58.21 8.44 58.21 8.06L58.21 8.06L58.21 8.06Q58.21 7.43 57.86 7.01L57.86 7.01L57.86 7.01Q57.50 6.59 56.97 6.59L56.97 6.59L56.97 6.59Q56.70 6.59 56.42 6.71L56.42 6.71L56.42 6.71Q56.14 6.83 55.90 7.10L55.90 7.10L55.90 7.10Q55.65 7.36 55.48 7.80L55.48 7.80L55.48 7.80Q55.31 8.23 55.26 8.86L55.26 8.86ZM59.61 9.51L55.23 9.51L55.23 9.51Q55.26 10.78 55.85 11.42L55.85 11.42L55.85 11.42Q56.43 12.07 57.37 12.07L57.37 12.07L57.37 12.07Q58.02 12.07 58.44 11.79L58.44 11.79L58.44 11.79Q58.87 11.52 59.22 11.05L59.22 11.05L59.63 11.30L59.63 11.30Q59.30 12.14 58.58 12.60L58.58 12.60L58.58 12.60Q57.85 13.06 56.83 13.06L56.83 13.06L56.83 13.06Q56.08 13.06 55.49 12.82L55.49 12.82L55.49 12.82Q54.89 12.59 54.47 12.13L54.47 12.13L54.47 12.13Q54.04 11.68 53.81 11.03L53.81 11.03L53.81 11.03Q53.58 10.37 53.58 9.55L53.58 9.55L53.58 9.55Q53.58 8.75 53.84 8.09L53.84 8.09L53.84 8.09Q54.10 7.42 54.55 6.94L54.55 6.94L54.55 6.94Q55.01 6.47 55.62 6.20L55.62 6.20L55.62 6.20Q56.24 5.94 56.94 5.94L56.94 5.94L56.94 5.94Q57.55 5.94 58.07 6.14L58.07 6.14L58.07 6.14Q58.58 6.34 58.94 6.71L58.94 6.71L58.94 6.71Q59.30 7.07 59.51 7.60L59.51 7.60L59.51 7.60Q59.71 8.12 59.71 8.76L59.71 8.76L59.71 8.76Q59.71 8.97 59.68 9.16L59.68 9.16L59.68 9.16Q59.65 9.35 59.61 9.51L59.61 9.51ZM71.12 6.19L71.12 6.78L70.27 6.94L68.03 12.99L67.38 12.99L65.60 8.25L63.81 12.99L63.15 12.99L60.91 6.89L60.16 6.78L60.16 6.19L63.50 6.19L63.50 6.78L62.55 6.90L63.91 10.88L65.39 6.92L64.46 6.78L64.46 6.19L67.59 6.19L67.59 6.78L66.67 6.92L68.15 10.82L69.47 6.94L68.47 6.78L68.47 6.19L71.12 6.19ZM82.74 12.11L83.64 12.29L83.64 12.85L80.25 12.85L80.25 12.29L81.20 12.11L81.20 12.11Q81.21 11.59 81.21 10.99L81.21 10.99L81.21 10.99Q81.21 10.39 81.21 9.91L81.21 9.91L81.21 8.61L81.21 8.61Q81.21 7.73 80.97 7.36L80.97 7.36L80.97 7.36Q80.72 7 80.21 7L80.21 7L80.21 7Q79.80 7 79.36 7.24L79.36 7.24L79.36 7.24Q78.92 7.48 78.51 7.85L78.51 7.85L78.51 7.85Q78.53 7.99 78.53 8.15L78.53 8.15L78.53 8.15Q78.54 8.30 78.54 8.46L78.54 8.46L78.54 9.91L78.54 9.91Q78.54 10.39 78.54 10.99L78.54 10.99L78.54 10.99Q78.54 11.59 78.55 12.11L78.55 12.11L79.45 12.29L79.45 12.85L76.06 12.85L76.06 12.29L77 12.11L77 12.11Q77.01 11.59 77.01 10.99L77.01 10.99L77.01 10.99Q77.01 10.39 77.01 9.91L77.01 9.91L77.01 8.62L77.01 8.62Q77.01 7.74 76.78 7.37L76.78 7.37L76.78 7.37Q76.54 7 76.02 7L76.02 7L76.02 7Q75.60 7 75.17 7.23L75.17 7.23L75.17 7.23Q74.73 7.46 74.33 7.84L74.33 7.84L74.33 9.91L74.33 9.91Q74.33 10.37 74.33 10.98L74.33 10.98L74.33 10.98Q74.33 11.59 74.34 12.11L74.34 12.11L75.22 12.29L75.22 12.85L71.82 12.85L71.82 12.29L72.77 12.11L72.77 12.11Q72.79 11.58 72.79 10.98L72.79 10.98L72.79 10.98Q72.79 10.37 72.79 9.91L72.79 9.91L72.79 9.16L72.79 9.16Q72.79 8.58 72.77 8.23L72.77 8.23L72.77 8.23Q72.76 7.87 72.74 7.45L72.74 7.45L71.71 7.32L71.71 6.80L73.96 5.94L74.17 6.08L74.28 7.18L74.28 7.18Q74.80 6.58 75.37 6.26L75.37 6.26L75.37 6.26Q75.94 5.94 76.61 5.94L76.61 5.94L76.61 5.94Q77.32 5.94 77.76 6.24L77.76 6.24L77.76 6.24Q78.20 6.55 78.40 7.22L78.40 7.22L78.40 7.22Q78.95 6.55 79.53 6.24L79.53 6.24L79.53 6.24Q80.12 5.94 80.85 5.94L80.85 5.94L80.85 5.94Q81.77 5.94 82.25 6.52L82.25 6.52L82.25 6.52Q82.73 7.10 82.73 8.39L82.73 8.39L82.73 9.91L82.73 9.91Q82.73 10.39 82.73 10.99L82.73 10.99L82.73 10.99Q82.73 11.59 82.74 12.11L82.74 12.11ZM88.41 11.49L88.41 9.23L88.41 9.23Q88.09 9.32 87.80 9.42L87.80 9.42L87.80 9.42Q87.51 9.52 87.32 9.59L87.32 9.59L87.32 9.59Q86.56 9.88 86.32 10.26L86.32 10.26L86.32 10.26Q86.09 10.63 86.09 11.00L86.09 11.00L86.09 11.00Q86.09 11.28 86.16 11.45L86.16 11.45L86.16 11.45Q86.24 11.62 86.37 11.75L86.37 11.75L86.37 11.75Q86.67 12.05 87.18 12.05L87.18 12.05L87.18 12.05Q87.46 12.05 87.72 11.94L87.72 11.94L87.72 11.94Q87.98 11.82 88.41 11.49L88.41 11.49ZM90.90 11.83L91.22 12.11L91.22 12.11Q90.96 12.63 90.64 12.81L90.64 12.81L90.64 12.81Q90.33 12.99 89.88 12.99L89.88 12.99L89.88 12.99Q89.29 12.99 88.94 12.74L88.94 12.74L88.94 12.74Q88.59 12.49 88.47 12.05L88.47 12.05L88.47 12.05Q88.21 12.31 87.98 12.50L87.98 12.50L87.98 12.50Q87.75 12.68 87.52 12.81L87.52 12.81L87.52 12.81Q87.29 12.94 87.02 13.00L87.02 13.00L87.02 13.00Q86.76 13.06 86.44 13.06L86.44 13.06L86.44 13.06Q85.64 13.06 85.09 12.62L85.09 12.62L85.09 12.62Q84.55 12.18 84.55 11.34L84.55 11.34L84.55 11.34Q84.55 11.03 84.64 10.74L84.64 10.74L84.64 10.74Q84.74 10.44 85.02 10.16L85.02 10.16L85.02 10.16Q85.29 9.87 85.77 9.60L85.77 9.60L85.77 9.60Q86.25 9.34 87.01 9.07L87.01 9.07L87.01 9.07Q87.29 8.97 87.66 8.87L87.66 8.87L87.66 8.87Q88.03 8.76 88.41 8.65L88.41 8.65L88.41 8.27L88.41 8.27Q88.41 7.32 88.12 6.96L88.12 6.96L88.12 6.96Q87.84 6.59 87.15 6.59L87.15 6.59L87.15 6.59Q87.02 6.59 86.88 6.61L86.88 6.61L86.88 6.61Q86.73 6.62 86.58 6.65L86.58 6.65L86.38 7.55L86.38 7.55Q86.21 8.43 85.51 8.43L85.51 8.43L85.51 8.43Q85.20 8.43 85.01 8.25L85.01 8.25L85.01 8.25Q84.81 8.06 84.77 7.77L84.77 7.77L84.77 7.77Q84.91 6.96 85.67 6.45L85.67 6.45L85.67 6.45Q86.42 5.94 87.64 5.94L87.64 5.94L87.64 5.94Q88.84 5.94 89.40 6.52L89.40 6.52L89.40 6.52Q89.95 7.11 89.95 8.57L89.95 8.57L89.95 11.51L89.95 11.51Q89.95 12.17 90.36 12.17L90.36 12.17L90.36 12.17Q90.51 12.17 90.62 12.09L90.62 12.09L90.62 12.09Q90.73 12.01 90.83 11.90L90.83 11.90L90.90 11.83ZM94.67 8.68L95.13 8.83L95.13 8.83Q95.66 9.03 96.03 9.26L96.03 9.26L96.03 9.26Q96.39 9.49 96.61 9.75L96.61 9.75L96.61 9.75Q96.82 10.01 96.91 10.31L96.91 10.31L96.91 10.31Q97.01 10.61 97.01 10.93L97.01 10.93L97.01 10.93Q97.01 11.38 96.82 11.77L96.82 11.77L96.82 11.77Q96.63 12.17 96.26 12.45L96.26 12.45L96.26 12.45Q95.90 12.74 95.37 12.90L95.37 12.90L95.37 12.90Q94.84 13.06 94.16 13.06L94.16 13.06L94.16 13.06Q93.49 13.06 92.97 12.91L92.97 12.91L92.97 12.91Q92.44 12.75 91.90 12.45L91.90 12.45L91.87 10.88L92.81 10.88L93.02 12.10L93.02 12.10Q93.58 12.38 94.18 12.38L94.18 12.38L94.18 12.38Q94.92 12.38 95.26 12.12L95.26 12.12L95.26 12.12Q95.61 11.86 95.61 11.38L95.61 11.38L95.61 11.38Q95.61 10.98 95.31 10.72L95.31 10.72L95.31 10.72Q95.02 10.47 94.28 10.19L94.28 10.19L93.63 9.95L93.63 9.95Q92.82 9.63 92.38 9.16L92.38 9.16L92.38 9.16Q91.94 8.68 91.94 7.97L91.94 7.97L91.94 7.97Q91.94 7.53 92.11 7.16L92.11 7.16L92.11 7.16Q92.29 6.79 92.62 6.52L92.62 6.52L92.62 6.52Q92.96 6.24 93.45 6.09L93.45 6.09L93.45 6.09Q93.94 5.94 94.58 5.94L94.58 5.94L94.58 5.94Q95.19 5.94 95.66 6.08L95.66 6.08L95.66 6.08Q96.14 6.22 96.63 6.48L96.63 6.48L96.56 7.97L95.66 7.97L95.44 6.82L95.44 6.82Q95.24 6.72 95.02 6.66L95.02 6.66L95.02 6.66Q94.79 6.61 94.53 6.61L94.53 6.61L94.53 6.61Q93.95 6.61 93.64 6.86L93.64 6.86L93.64 6.86Q93.32 7.11 93.32 7.56L93.32 7.56L93.32 7.56Q93.32 7.92 93.60 8.16L93.60 8.16L93.60 8.16Q93.88 8.40 94.67 8.68L94.67 8.68ZM101.92 11.69L102.28 12.12L102.28 12.12Q102.02 12.50 101.56 12.75L101.56 12.75L101.56 12.75Q101.09 12.99 100.44 12.99L100.44 12.99L100.44 12.99Q99.64 12.99 99.18 12.59L99.18 12.59L99.18 12.59Q98.71 12.18 98.71 11.33L98.71 11.33L98.71 11.33Q98.71 10.98 98.72 10.69L98.72 10.69L98.72 10.69Q98.73 10.40 98.73 10.00L98.73 10.00L98.73 7L97.69 7L97.69 6.31L98.85 6.16L99.23 4.23L100.34 4.23L100.30 6.19L102.03 6.19L102.03 7L100.28 7L100.28 11.05L100.28 11.05Q100.28 11.58 100.49 11.82L100.49 11.82L100.49 11.82Q100.70 12.05 101.04 12.05L101.04 12.05L101.04 12.05Q101.22 12.05 101.44 11.98L101.44 11.98L101.44 11.98Q101.65 11.90 101.92 11.69L101.92 11.69ZM104.55 8.86L106.65 8.86L106.65 8.86Q107.16 8.86 107.33 8.65L107.33 8.65L107.33 8.65Q107.51 8.44 107.51 8.06L107.51 8.06L107.51 8.06Q107.51 7.43 107.15 7.01L107.15 7.01L107.15 7.01Q106.79 6.59 106.26 6.59L106.26 6.59L106.26 6.59Q105.99 6.59 105.71 6.71L105.71 6.71L105.71 6.71Q105.43 6.83 105.19 7.10L105.19 7.10L105.19 7.10Q104.94 7.36 104.78 7.80L104.78 7.80L104.78 7.80Q104.61 8.23 104.55 8.86L104.55 8.86ZM108.91 9.51L104.52 9.51L104.52 9.51Q104.55 10.78 105.14 11.42L105.14 11.42L105.14 11.42Q105.73 12.07 106.67 12.07L106.67 12.07L106.67 12.07Q107.31 12.07 107.74 11.79L107.74 11.79L107.74 11.79Q108.16 11.52 108.51 11.05L108.51 11.05L108.92 11.30L108.92 11.30Q108.60 12.14 107.87 12.60L107.87 12.60L107.87 12.60Q107.14 13.06 106.12 13.06L106.12 13.06L106.12 13.06Q105.38 13.06 104.78 12.82L104.78 12.82L104.78 12.82Q104.19 12.59 103.76 12.13L103.76 12.13L103.76 12.13Q103.33 11.68 103.10 11.03L103.10 11.03L103.10 11.03Q102.87 10.37 102.87 9.55L102.87 9.55L102.87 9.55Q102.87 8.75 103.13 8.09L103.13 8.09L103.13 8.09Q103.39 7.42 103.84 6.94L103.84 6.94L103.84 6.94Q104.30 6.47 104.92 6.20L104.92 6.20L104.92 6.20Q105.53 5.94 106.23 5.94L106.23 5.94L106.23 5.94Q106.85 5.94 107.36 6.14L107.36 6.14L107.36 6.14Q107.87 6.34 108.23 6.71L108.23 6.71L108.23 6.71Q108.60 7.07 108.80 7.60L108.80 7.60L108.80 7.60Q109.00 8.12 109.00 8.76L109.00 8.76L109.00 8.76Q109.00 8.97 108.98 9.16L108.98 9.16L108.98 9.16Q108.95 9.35 108.91 9.51L108.91 9.51ZM112.48 6.08L112.62 7.56L112.62 7.56Q113.01 6.80 113.53 6.37L113.53 6.37L113.53 6.37Q114.04 5.94 114.58 5.94L114.58 5.94L114.58 5.94Q114.87 5.94 115.18 6.10L115.18 6.10L115.18 6.10Q115.49 6.27 115.57 6.71L115.57 6.71L115.57 6.71Q115.57 7.11 115.32 7.36L115.32 7.36L115.32 7.36Q115.07 7.60 114.66 7.60L114.66 7.60L114.66 7.60Q114.17 7.60 113.72 7.14L113.72 7.14L113.65 7.07L113.65 7.07Q113.33 7.35 113.07 7.71L113.07 7.71L113.07 7.71Q112.81 8.08 112.63 8.57L112.63 8.57L112.63 9.91L112.63 9.91Q112.63 10.36 112.63 10.96L112.63 10.96L112.63 10.96Q112.63 11.55 112.64 12.08L112.64 12.08L113.76 12.29L113.76 12.85L110.12 12.85L110.12 12.29L111.06 12.11L111.06 12.11Q111.08 11.59 111.08 10.98L111.08 10.98L111.08 10.98Q111.08 10.37 111.08 9.91L111.08 9.91L111.08 9.16L111.08 9.16Q111.08 8.58 111.06 8.23L111.06 8.23L111.06 8.23Q111.05 7.87 111.03 7.45L111.03 7.45L110.01 7.32L110.01 6.80L112.27 5.94L112.48 6.08Z"></path></g><!----><!----></svg>